<svg width="985" height="196" viewBox="50 465 985 196" fill="none" xmlns="http://www.w3.org/2000/svg">
<path d="M565.07 577.317C565.07 579.205 564.924 581.239 564.779 583.128H515.241C515.241 594.895 522.359 603.611 533.836 603.611C542.262 603.611 547.492 598.672 550.978 592.135L564.634 598.817C558.532 610.73 547.782 617.267 533.836 617.267C510.011 617.267 498.098 602.013 498.098 578.479C498.098 555.671 511.464 541.143 532.528 541.143C555.046 541.143 565.07 556.542 565.07 577.317ZM515.095 572.087H547.782C547.927 561.191 542.988 553.056 532.093 553.056C520.906 553.056 515.095 562.208 515.095 572.087Z" fill="#133235"/>
<path d="M609.25 617.267C592.253 617.267 580.195 610.149 576.128 597.51L588.912 591.408C592.108 599.834 599.662 604.628 610.122 604.628C618.838 604.628 623.487 600.851 623.487 595.476C623.487 590.246 620.146 588.067 613.463 586.905L600.388 584.58C587.459 582.256 579.759 575.137 579.759 563.661C579.759 550.296 591.236 541.143 609.541 541.143C625.085 541.143 636.416 547.39 639.903 557.85L627.409 564.532C624.359 557.85 618.112 553.492 608.814 553.492C600.534 553.492 595.74 556.688 595.74 562.499C595.74 567.438 599.226 569.908 605.909 571.07L620.146 573.685C633.22 576.154 639.758 582.982 639.758 594.023C639.758 608.26 628.136 617.267 609.25 617.267Z" fill="#133235"/>
<path d="M668.684 555.671H648.782V542.887H668.684V524.437L685.827 517.609V542.887H712.702V555.671H685.827V588.357C685.827 597.074 690.766 601.577 699.918 601.577C704.567 601.577 708.925 601.142 712.702 600.56V614.943C708.925 615.669 704.131 616.686 697.158 616.686C678.127 616.686 668.684 607.243 668.684 590.972V555.671Z" fill="#133235"/>
<path d="M787.681 571.07V593.006C787.681 603.175 788.407 610.584 789.86 615.524H772.717C772.136 611.165 771.701 606.807 771.555 602.594C767.197 612.182 759.352 617.267 747.294 617.267C733.058 617.267 723.324 608.551 723.324 596.057C723.324 588.793 726.375 583.128 732.331 579.35C736.98 576.445 744.68 574.411 756.011 572.958L770.248 570.925V568.745C770.248 558.286 766.325 553.492 757.464 553.492C748.893 553.492 743.953 557.995 743.372 566.13H725.503C726.811 550.15 738.723 541.143 758.335 541.143C778.383 541.143 787.681 550.441 787.681 571.07ZM770.684 585.742V580.948L757.028 582.982C745.842 584.726 741.193 588.067 741.193 594.459C741.193 600.996 745.551 604.919 752.96 604.919C763.71 604.919 770.684 597.364 770.684 585.742Z" fill="#133235"/>
<path d="M804.259 510.2H821.256V554.363C824.888 546.664 833.023 541.143 842.902 541.143C861.787 541.143 872.247 556.833 872.247 579.06C872.247 601.868 861.497 617.267 842.466 617.267C832.733 617.267 824.161 612.182 820.384 603.756L818.496 615.524H804.259V510.2ZM820.82 576.881V581.675C820.82 594.749 827.067 603.902 837.527 603.902C848.132 603.902 854.524 594.168 854.524 579.06C854.524 564.387 848.422 554.509 837.381 554.509C827.067 554.509 820.82 563.37 820.82 576.881Z" fill="#133235"/>
<path d="M944.03 615.524H880.545V602.449H903.208V523.275H882.288V510.2H920.205V602.449H944.03V615.524Z" fill="#133235"/>
<path d="M1017.56 577.317C1017.56 579.205 1017.41 581.239 1017.27 583.128H967.731C967.731 594.895 974.849 603.611 986.326 603.611C994.752 603.611 999.982 598.672 1003.47 592.135L1017.12 598.817C1011.02 610.73 1000.27 617.267 986.326 617.267C962.501 617.267 950.589 602.013 950.589 578.479C950.589 555.671 963.954 541.143 985.019 541.143C1007.54 541.143 1017.56 556.542 1017.56 577.317ZM967.586 572.087H1000.27C1000.42 561.191 995.478 553.056 984.583 553.056C973.397 553.056 967.586 562.208 967.586 572.087Z" fill="#133235"/>
<path d="M379.521 555.671H359.618V542.887H379.521V524.437L396.663 517.609V542.887H443.458V524.437L460.601 517.609V542.887H487.476V555.671H460.601V588.357C460.601 597.074 465.54 601.577 474.692 601.577C479.341 601.577 483.699 601.142 487.476 600.56V614.943C483.699 615.669 478.905 616.686 471.932 616.686C452.901 616.686 443.458 607.243 443.458 590.972V555.671H396.663V588.357C396.663 597.074 401.602 601.577 410.755 601.577C415.403 601.577 419.762 601.142 423.539 600.56V614.943C419.762 615.669 414.968 616.686 407.994 616.686C388.964 616.686 379.521 607.243 379.521 590.972V555.671Z" fill="#133235"/>
<path d="M357.301 615.524H339.723L332.169 588.903H299.482L292.073 615.524H274.495L305.584 511.099H326.213L357.301 615.524ZM316.189 526.101H315.608C313.283 538.897 309.361 554.487 303.55 574.342H328.101C322.29 554.487 318.513 538.897 316.189 526.101Z" fill="#133235"/>
<rect x="63.2949" y="510.2" width="35.1999" height="105.6" fill="#133235"/>
<rect x="133.695" y="510.2" width="35.1999" height="105.6" fill="#133235"/>
<rect x="204.095" y="510.2" width="35.1999" height="105.6" fill="#133235"/>
<path d="M168.895 475C188.335 475 204.094 490.76 204.094 510.2H168.895V475Z" fill="#133235"/>
<path d="M133.695 475C114.255 475 98.4954 490.76 98.4954 510.2H133.695V475Z" fill="#133235"/>
<path d="M168.895 651C188.335 651 204.094 635.24 204.094 615.8H168.895V651Z" fill="#133235"/>
<path d="M133.695 651C114.255 651 98.4954 635.24 98.4954 615.8H133.695V651Z" fill="#133235"/>
</svg>
