
        <svg xmlns="http://www.w3.org/2000/svg" xmlns:xlink="http://www.w3.org/1999/xlink" version="1.1" width="3162.3083859332733" 
        height="600.8582147664721" viewBox="0 0 3162.3083859332733 600.8582147664721">
			
			<g transform="scale(8.11541929666366) translate(10, 10)">
				<defs id="SvgjsDefs3057"></defs><g id="SvgjsG3058" featureKey="uHI19F-0" transform="matrix(0.2934948801994324,0,0,0.2934948801994324,-22.15574605630338,-23.490848066807757)" fill="#5fe0c3"><g xmlns="http://www.w3.org/2000/svg"><path d="M175 135.96c7.2 0 13.23 4.79 15.69 11.39q.87 2.35.84 9.22-.05 9.14-.06 18.16 0 9.02.03 18.17.02 6.86-.86 9.21c-2.47 6.6-8.5 11.37-15.71 11.37-7.21-.01-13.23-4.79-15.7-11.4q-.87-2.35-.84-9.21.05-9.14.06-18.17.01-9.02-.03-18.16-.02-6.86.86-9.22c2.47-6.59 8.51-11.37 15.72-11.36M92.33 145.83c9.72.02 16.39 7.41 16.56 16.87q.15 8.78.15 12.07-.01 3.28-.21 12.07c-.22 9.45-6.92 16.81-16.64 16.79-9.72-.03-16.39-7.42-16.56-16.88q-.15-8.78-.14-12.07.01-3.28.2-12.07c.22-9.45 6.93-16.81 16.64-16.78" fill="#1b6fe3"></path></g><g xmlns="http://www.w3.org/2000/svg"><rect width="33.38" height="120.84" x="-16.69" y="-60.42" rx="16.22" transform="rotate(-.1 100064.989 -76333.826)" fill="#f5f7fa"></rect><rect width="33.02" height="57.08" x="-16.51" y="-28.54" rx="15.59" transform="rotate(-.1 100276.123 -147569.52)" fill="#f5f7fa"></rect></g><rect xmlns="http://www.w3.org/2000/svg" width="33.3" height="120.86" x="-16.65" y="-60.43" fill="#5fe0c3" rx="16.17" transform="rotate(.1 -99918.726 124098.244)"></rect></g><g id="SvgjsG3059" featureKey="8FbbNb-0" transform="matrix(2.738051652908325,0,0,2.738051652908325,74.0159210365481,-13.690257914680357)" fill="#f5f7fa"><path d="M13.349609 9.765625 c2.148438 0 3.535156 1.09375 3.535156 3.154297 l0 7.080078 l-2.8125 0 l0 -6.279297 c0 -1.181641 -0.742187 -1.699219 -1.582031 -1.699219 c-1.005859 0 -1.894531 0.576172 -1.894531 2.314453 l0 5.664063 l-2.841797 0 l0 -6.25 c0 -1.201172 -0.722656 -1.728516 -1.611328 -1.728516 c-0.976562 0 -1.884766 0.576172 -1.884766 2.460938 l0 5.517578 l-2.802734 0 l0 -10.039062 l2.802734 0 l0 1.181641 c0.664063 -0.888672 1.679688 -1.376953 2.910156 -1.376953 c1.455078 0 2.548828 0.527344 3.076172 1.503906 c0.703125 -1.005859 1.777344 -1.503906 3.105469 -1.503906 z M24.296876 20.195313 c-3.193359 0 -5.498047 -1.943359 -5.498047 -5.224609 c0 -3.261719 2.285156 -5.205078 5.498047 -5.205078 c3.232422 0 5.507813 1.943359 5.507813 5.205078 c0 3.28125 -2.285156 5.224609 -5.507812 5.224609 z M24.267579 17.958984 c1.630859 0 2.744141 -1.191406 2.744141 -2.988281 s-1.113281 -2.988281 -2.744141 -2.988281 c-1.572266 0 -2.675781 1.191406 -2.675781 2.988281 s1.103516 2.988281 2.675781 2.988281 z M39.013672 5 l2.8125 0 l0 15 l-2.666016 0 l-0.068359 -1.308594 c-0.576172 0.986328 -1.787109 1.542969 -3.154297 1.542969 c-2.646484 0 -4.833984 -1.953125 -4.833984 -5.234375 s2.197266 -5.234375 4.833984 -5.234375 c1.318359 0 2.480469 0.498047 3.076172 1.40625 l0 -6.171875 z M36.582031 17.900391 c1.494141 0 2.65625 -1.142578 2.65625 -2.900391 s-1.171875 -2.910156 -2.65625 -2.910156 c-1.494141 0 -2.666016 1.103516 -2.666016 2.910156 c0 1.796875 1.171875 2.900391 2.666016 2.900391 z M54.179688 14.833984 l-0.029297 0.673828 l-7.441406 0 c0.117188 1.669922 1.230469 2.470703 2.568359 2.470703 c1.005859 0 1.787109 -0.46875 2.167969 -1.357422 l2.578125 0.380859 c-0.664062 2.03125 -2.470703 3.193359 -4.726562 3.193359 c-3.242187 0 -5.361328 -1.914062 -5.361328 -5.214844 s2.177734 -5.234375 5.273438 -5.234375 c2.841797 0 4.960938 1.572266 4.970703 5.087891 z M49.228516 11.738281 c-1.279297 0 -2.167969 0.595703 -2.441406 1.933594 l4.609375 0 c-0.146484 -1.279297 -1.015625 -1.933594 -2.167969 -1.933594 z M56.318359 20 l0 -15 l2.841797 0 l0 15 l-2.841797 0 z M65.605468 20.195313 c-2.255859 0 -4.003906 -0.888672 -4.365234 -2.792969 l2.353516 -0.664062 c0.302734 1.074219 1.064453 1.494141 2.011719 1.494141 c0.693359 0 1.445313 -0.214844 1.425781 -1.005859 c-0.009766 -1.044922 -1.591797 -1.132812 -3.183594 -1.699219 c-1.201172 -0.419922 -2.353516 -1.064453 -2.353516 -2.753906 c0 -2.060547 1.708984 -3.007812 3.935547 -3.007812 c1.953125 0 3.583984 0.742188 3.974609 2.65625 l-2.177734 0.488281 c-0.302734 -0.9375 -0.966797 -1.269531 -1.787109 -1.269531 c-0.742187 0 -1.376953 0.263672 -1.376953 0.888672 c0 0.791016 1.162109 0.947266 2.421875 1.289063 c1.552734 0.419922 3.251953 1.09375 3.251953 3.242188 c0 2.304688 -1.962891 3.134766 -4.130859 3.134766 z M73.193359 8.457031 c-0.888672 0 -1.630859 -0.722656 -1.630859 -1.621094 c0 -0.888672 0.742188 -1.611328 1.630859 -1.611328 c0.869141 0 1.611328 0.722656 1.611328 1.611328 c0 0.898438 -0.742187 1.621094 -1.611328 1.621094 z M71.757812 20 l0 -10.039062 l2.832031 0 l0 10.039063 l-2.832031 0 z M84.414063 9.960938 l2.675781 0 l0 9.287109 c0 3.90625 -2.119141 5.488281 -5.322266 5.488281 c-2.880859 0 -4.443359 -1.210937 -5.175781 -3.115234 l2.333984 -0.996094 c0.566406 1.298828 1.386719 1.923828 2.734375 1.923828 c1.777344 0 2.607422 -1.113281 2.607422 -3.095703 l0 -1.171875 c-0.585937 0.800781 -1.738281 1.367188 -3.046875 1.367188 c-2.490234 0 -4.580078 -1.962891 -4.580078 -4.960937 c0 -3.007812 2.099609 -4.921875 4.599609 -4.921875 c1.40625 0 2.558594 0.625 3.105469 1.523438 z M81.94336 17.373047 c1.464844 0 2.597656 -1.191406 2.597656 -2.685547 c0 -1.503906 -1.113281 -2.695312 -2.597656 -2.695312 c-1.474609 0 -2.587891 1.142578 -2.587891 2.695313 c0 1.533203 1.132813 2.685547 2.587891 2.685547 z M96.083985 9.765625 c2.246094 0 3.59375 1.25 3.59375 3.759766 l0 6.474609 l-2.822266 0 l0 -6.015625 c0 -1.474609 -0.820312 -1.962891 -1.826172 -1.962891 c-1.044922 0 -2.1875 0.517578 -2.207031 2.441406 l0 5.537109 l-2.8125 0 l0 -15 l2.8125 0 l0 6.162109 c0.712891 -0.869141 1.835938 -1.396484 3.261719 -1.396484 z M106.123047 20 c-1.953125 0 -3.066406 -1.132812 -3.066406 -3.134766 l0 -4.746094 l-1.972656 0 l0 -2.158203 l0.634766 0 c1.064453 0 1.650391 -0.410156 1.650391 -1.914062 l0 -1.328125 l2.539063 0 l0 3.242188 l2.070313 0 l0 2.158203 l-2.070312 0 l0 4.443359 c0 0.898438 0.439453 1.298828 1.162109 1.298828 l0.908203 0 l0 2.138672 l-1.855469 0 z"></path></g>
			</g>
		</svg>
	